<svg width="104" height="94" viewBox="0 0 104 94" fill="none" xmlns="http://www.w3.org/2000/svg">
<path d="M52.2793 15.3027V24.0469" stroke="black" stroke-width="3.49767"/>
<path d="M2.02818 63.6015C1.33933 50.4964 13.509 49.4043 13.509 49.4043L15.1163 75.6146C15.1163 75.6146 2.71703 76.7067 2.02818 63.6015Z" fill="white" stroke="black" stroke-width="3.49767"/>
<path d="M102.097 63.6015C102.694 50.4964 92.1467 49.4043 92.1467 49.4043L90.7537 62.302L89.6606 75.6146C92.588 75.3959 101.634 73.7592 102.097 63.6015Z" fill="white"/>
<path d="M90.7537 75.6146C90.7537 75.6146 88.8112 75.678 89.6606 75.6146M89.6606 75.6146C92.588 75.3959 101.634 73.7592 102.097 63.6015C102.694 50.4964 92.1467 49.4043 92.1467 49.4043L90.7537 62.302L89.6606 75.6146Z" stroke="black" stroke-width="3.49767"/>
<rect x="13.3673" y="24.921" width="77.386" height="67.7674" rx="27.5442" fill="white" stroke="black" stroke-width="2.62326"/>
<rect x="20.7999" y="38.9112" width="62.0837" height="45.0326" rx="20.1116" fill="#E2F4F2" stroke="black" stroke-width="2.62326"/>
<circle cx="51.8421" cy="8.30698" r="6.77674" fill="#D2EDED" stroke="black" stroke-width="3.06047"/>
<circle cx="37.6324" cy="58.3678" r="5.02791" fill="black"/>
<path d="M44.8467 68.6331C44.8467 68.6331 45.4291 71.8783 52.4185 71.6946C59.4079 71.5109 58.8255 68.2045 58.8255 68.2045" stroke="black" stroke-width="3.49767" stroke-linecap="round"/>
<circle cx="66.4888" cy="58.3678" r="5.02791" fill="black"/>
</svg>
